<mxfile host="Electron" modified="2024-05-24T20:37:43.477Z" agent="Mozilla/5.0 (Windows NT 10.0; Win64; x64) AppleWebKit/537.36 (KHTML, like Gecko) draw.io/24.1.0 Chrome/120.0.6099.109 Electron/28.1.0 Safari/537.36" etag="O-Wq0vFJiGShxGx_Mwsc" version="24.1.0" type="device">
  <diagram name="Page-1" id="68DRb-etr8rqIKrBwATD">
    <mxGraphModel dx="1434" dy="836" grid="1" gridSize="10" guides="1" tooltips="1" connect="1" arrows="1" fold="1" page="1" pageScale="1" pageWidth="850" pageHeight="1100" math="0" shadow="0">
      <root>
        <mxCell id="0" />
        <mxCell id="1" parent="0" />
        <mxCell id="DwMdFztZHCGfLOWAS0eg-4" value="DB Request" style="strokeWidth=2;html=1;shape=mxgraph.flowchart.direct_data;whiteSpace=wrap;" parent="1" vertex="1">
          <mxGeometry x="400" y="360" width="120" height="60" as="geometry" />
        </mxCell>
        <mxCell id="DwMdFztZHCGfLOWAS0eg-6" value="Requests" style="shape=process;whiteSpace=wrap;html=1;backgroundOutline=1;" parent="1" vertex="1">
          <mxGeometry x="210" y="360" width="120" height="60" as="geometry" />
        </mxCell>
        <mxCell id="DwMdFztZHCGfLOWAS0eg-9" value="N: Requests.Count" style="rounded=0;whiteSpace=wrap;html=1;" parent="1" vertex="1">
          <mxGeometry x="210" y="450" width="120" height="60" as="geometry" />
        </mxCell>
        <mxCell id="DwMdFztZHCGfLOWAS0eg-12" value="Count: =0" style="rounded=0;whiteSpace=wrap;html=1;" parent="1" vertex="1">
          <mxGeometry x="210" y="530" width="120" height="60" as="geometry" />
        </mxCell>
        <mxCell id="DwMdFztZHCGfLOWAS0eg-14" value="i:= 1, N, 1" style="shape=hexagon;perimeter=hexagonPerimeter2;whiteSpace=wrap;html=1;fixedSize=1;" parent="1" vertex="1">
          <mxGeometry x="195" y="620" width="150" height="60" as="geometry" />
        </mxCell>
        <mxCell id="DwMdFztZHCGfLOWAS0eg-16" value="Request:= Requests[i]" style="rounded=0;whiteSpace=wrap;html=1;" parent="1" vertex="1">
          <mxGeometry x="185" y="710" width="170" height="60" as="geometry" />
        </mxCell>
        <mxCell id="DwMdFztZHCGfLOWAS0eg-19" value="Count:= Count +1" style="rounded=0;whiteSpace=wrap;html=1;" parent="1" vertex="1">
          <mxGeometry x="420" y="900" width="120" height="60" as="geometry" />
        </mxCell>
        <mxCell id="DwMdFztZHCGfLOWAS0eg-21" value="Request.Status = &quot;done&quot;" style="strokeWidth=2;html=1;shape=mxgraph.flowchart.decision;whiteSpace=wrap;" parent="1" vertex="1">
          <mxGeometry x="167.5" y="800" width="205" height="80" as="geometry" />
        </mxCell>
        <mxCell id="DwMdFztZHCGfLOWAS0eg-25" value="" style="endArrow=none;html=1;rounded=0;entryX=0;entryY=0.5;entryDx=0;entryDy=0;entryPerimeter=0;exitX=0.5;exitY=1;exitDx=0;exitDy=0;" parent="1" target="DwMdFztZHCGfLOWAS0eg-21" edge="1">
          <mxGeometry width="50" height="50" relative="1" as="geometry">
            <mxPoint x="470" y="960" as="sourcePoint" />
            <mxPoint x="470" y="890" as="targetPoint" />
            <Array as="points">
              <mxPoint x="470" y="1000" />
              <mxPoint x="290" y="1000" />
              <mxPoint x="110" y="1000" />
              <mxPoint x="110" y="920" />
              <mxPoint x="110" y="840" />
            </Array>
          </mxGeometry>
        </mxCell>
        <mxCell id="WJvghkBUuT_XRDhwKYGO-5" value="No" style="edgeLabel;html=1;align=center;verticalAlign=middle;resizable=0;points=[];" parent="DwMdFztZHCGfLOWAS0eg-25" vertex="1" connectable="0">
          <mxGeometry x="0.9045" y="-4" relative="1" as="geometry">
            <mxPoint as="offset" />
          </mxGeometry>
        </mxCell>
        <mxCell id="DwMdFztZHCGfLOWAS0eg-26" value="" style="endArrow=classic;html=1;rounded=0;entryX=0;entryY=0.5;entryDx=0;entryDy=0;" parent="1" target="DwMdFztZHCGfLOWAS0eg-14" edge="1">
          <mxGeometry width="50" height="50" relative="1" as="geometry">
            <mxPoint x="270" y="1000" as="sourcePoint" />
            <mxPoint x="450" y="830" as="targetPoint" />
            <Array as="points">
              <mxPoint x="270" y="1040" />
              <mxPoint x="60" y="1040" />
              <mxPoint x="60" y="840" />
              <mxPoint x="60" y="650" />
            </Array>
          </mxGeometry>
        </mxCell>
        <mxCell id="WJvghkBUuT_XRDhwKYGO-1" value="Function Count" style="strokeWidth=2;html=1;shape=mxgraph.flowchart.terminator;whiteSpace=wrap;" parent="1" vertex="1">
          <mxGeometry x="220" y="260" width="100" height="60" as="geometry" />
        </mxCell>
        <mxCell id="WJvghkBUuT_XRDhwKYGO-4" value="Return" style="strokeWidth=2;html=1;shape=mxgraph.flowchart.terminator;whiteSpace=wrap;" parent="1" vertex="1">
          <mxGeometry x="230" y="1110" width="100" height="60" as="geometry" />
        </mxCell>
        <mxCell id="iDq_eWDdtDZGwDFSr4bg-1" value="" style="endArrow=none;html=1;rounded=0;entryX=0.5;entryY=1;entryDx=0;entryDy=0;entryPerimeter=0;exitX=0.5;exitY=0;exitDx=0;exitDy=0;" edge="1" parent="1" source="DwMdFztZHCGfLOWAS0eg-6" target="WJvghkBUuT_XRDhwKYGO-1">
          <mxGeometry width="50" height="50" relative="1" as="geometry">
            <mxPoint x="60" y="440" as="sourcePoint" />
            <mxPoint x="110" y="390" as="targetPoint" />
          </mxGeometry>
        </mxCell>
        <mxCell id="iDq_eWDdtDZGwDFSr4bg-2" value="" style="endArrow=none;html=1;rounded=0;entryX=0;entryY=0.5;entryDx=0;entryDy=0;entryPerimeter=0;exitX=1;exitY=0.5;exitDx=0;exitDy=0;" edge="1" parent="1" source="DwMdFztZHCGfLOWAS0eg-6" target="DwMdFztZHCGfLOWAS0eg-4">
          <mxGeometry width="50" height="50" relative="1" as="geometry">
            <mxPoint x="380" y="490" as="sourcePoint" />
            <mxPoint x="430" y="440" as="targetPoint" />
          </mxGeometry>
        </mxCell>
        <mxCell id="iDq_eWDdtDZGwDFSr4bg-3" value="" style="endArrow=none;html=1;rounded=0;entryX=0.5;entryY=1;entryDx=0;entryDy=0;exitX=0.5;exitY=0;exitDx=0;exitDy=0;" edge="1" parent="1" source="DwMdFztZHCGfLOWAS0eg-9" target="DwMdFztZHCGfLOWAS0eg-6">
          <mxGeometry width="50" height="50" relative="1" as="geometry">
            <mxPoint x="80" y="520" as="sourcePoint" />
            <mxPoint x="130" y="470" as="targetPoint" />
          </mxGeometry>
        </mxCell>
        <mxCell id="iDq_eWDdtDZGwDFSr4bg-4" value="" style="endArrow=none;html=1;rounded=0;entryX=0.5;entryY=1;entryDx=0;entryDy=0;exitX=0.5;exitY=0;exitDx=0;exitDy=0;" edge="1" parent="1" source="DwMdFztZHCGfLOWAS0eg-12" target="DwMdFztZHCGfLOWAS0eg-9">
          <mxGeometry width="50" height="50" relative="1" as="geometry">
            <mxPoint x="40" y="550" as="sourcePoint" />
            <mxPoint x="90" y="500" as="targetPoint" />
          </mxGeometry>
        </mxCell>
        <mxCell id="iDq_eWDdtDZGwDFSr4bg-5" value="" style="endArrow=none;html=1;rounded=0;entryX=0.5;entryY=1;entryDx=0;entryDy=0;exitX=0.5;exitY=0;exitDx=0;exitDy=0;" edge="1" parent="1" source="DwMdFztZHCGfLOWAS0eg-14" target="DwMdFztZHCGfLOWAS0eg-12">
          <mxGeometry width="50" height="50" relative="1" as="geometry">
            <mxPoint x="70" y="620" as="sourcePoint" />
            <mxPoint x="120" y="570" as="targetPoint" />
          </mxGeometry>
        </mxCell>
        <mxCell id="iDq_eWDdtDZGwDFSr4bg-7" value="" style="endArrow=none;html=1;rounded=0;exitX=1;exitY=0.5;exitDx=0;exitDy=0;exitPerimeter=0;entryX=0.5;entryY=0;entryDx=0;entryDy=0;" edge="1" parent="1" source="DwMdFztZHCGfLOWAS0eg-21" target="DwMdFztZHCGfLOWAS0eg-19">
          <mxGeometry width="50" height="50" relative="1" as="geometry">
            <mxPoint x="390" y="840" as="sourcePoint" />
            <mxPoint x="440" y="790" as="targetPoint" />
            <Array as="points">
              <mxPoint x="480" y="840" />
            </Array>
          </mxGeometry>
        </mxCell>
        <mxCell id="iDq_eWDdtDZGwDFSr4bg-8" value="Yes" style="edgeLabel;html=1;align=center;verticalAlign=middle;resizable=0;points=[];" vertex="1" connectable="0" parent="iDq_eWDdtDZGwDFSr4bg-7">
          <mxGeometry x="-0.3493" y="1" relative="1" as="geometry">
            <mxPoint x="1" as="offset" />
          </mxGeometry>
        </mxCell>
        <mxCell id="iDq_eWDdtDZGwDFSr4bg-10" value="" style="endArrow=none;html=1;rounded=0;entryX=0.5;entryY=1;entryDx=0;entryDy=0;exitX=0.5;exitY=0;exitDx=0;exitDy=0;" edge="1" parent="1" source="DwMdFztZHCGfLOWAS0eg-16" target="DwMdFztZHCGfLOWAS0eg-14">
          <mxGeometry width="50" height="50" relative="1" as="geometry">
            <mxPoint x="100" y="790" as="sourcePoint" />
            <mxPoint x="150" y="740" as="targetPoint" />
          </mxGeometry>
        </mxCell>
        <mxCell id="iDq_eWDdtDZGwDFSr4bg-11" value="" style="endArrow=none;html=1;rounded=0;entryX=0.5;entryY=1;entryDx=0;entryDy=0;exitX=0.5;exitY=0;exitDx=0;exitDy=0;exitPerimeter=0;" edge="1" parent="1" source="DwMdFztZHCGfLOWAS0eg-21" target="DwMdFztZHCGfLOWAS0eg-16">
          <mxGeometry width="50" height="50" relative="1" as="geometry">
            <mxPoint x="100" y="810" as="sourcePoint" />
            <mxPoint x="150" y="760" as="targetPoint" />
          </mxGeometry>
        </mxCell>
        <mxCell id="iDq_eWDdtDZGwDFSr4bg-12" value="" style="endArrow=none;html=1;rounded=0;exitX=1;exitY=0.5;exitDx=0;exitDy=0;entryX=1;entryY=0.5;entryDx=0;entryDy=0;entryPerimeter=0;" edge="1" parent="1" source="DwMdFztZHCGfLOWAS0eg-14" target="WJvghkBUuT_XRDhwKYGO-4">
          <mxGeometry width="50" height="50" relative="1" as="geometry">
            <mxPoint x="400" y="910" as="sourcePoint" />
            <mxPoint x="450" y="860" as="targetPoint" />
            <Array as="points">
              <mxPoint x="640" y="650" />
              <mxPoint x="640" y="900" />
              <mxPoint x="640" y="1140" />
            </Array>
          </mxGeometry>
        </mxCell>
      </root>
    </mxGraphModel>
  </diagram>
</mxfile>
